<svg width="26" height="26" viewBox="0 0 26 26" fill="none" xmlns="http://www.w3.org/2000/svg">
<path d="M23.6518 2.56457C20.745 -0.610064 16.1407 -0.827427 13.0025 1.91158C11.5814 0.672671 9.83682 0 8.0046 0C5.86974 0 3.86019 0.910617 2.34618 2.56457C0.832973 4.21674 0 6.41278 0 8.74926C0 11.0866 0.832973 13.2827 2.36542 14.9554L12.1089 25.5975C12.3448 25.8551 12.6646 26 12.9984 26C12.9988 26 12.9988 26 12.9988 26C13.3325 26 13.6524 25.8551 13.8883 25.5975L23.6551 14.9313C25.167 13.2684 26 11.0714 26 8.74478C26 6.41278 25.1662 4.21854 23.6518 2.56457ZM21.8736 12.991L12.9992 22.6822L4.33074 13.2066L4.12515 12.9919C3.08742 11.8586 2.51613 10.3522 2.51613 8.74926C2.51613 7.14719 3.08742 5.64082 4.12516 4.50747C5.16413 3.37322 6.54178 2.74795 8.0046 2.74795C9.46621 2.74795 10.8484 3.37411 11.8746 4.48689L12.0904 4.73288C12.3243 4.99945 12.647 5.15151 12.9853 5.15598C13.3039 5.12468 13.6491 5.01465 13.8883 4.75346L14.1135 4.50747C16.2533 2.17099 19.7338 2.17099 21.8728 4.50747C22.9118 5.6426 23.4839 7.14718 23.4839 8.74478C23.4839 10.3415 22.9105 11.8505 21.8736 12.991Z" fill="white"/>
</svg>
