<svg width="26" height="26" viewBox="0 0 26 26" fill="none" xmlns="http://www.w3.org/2000/svg">
<path d="M25.7277 14.4007L13.6564 0.317363C13.2937 -0.105788 12.7061 -0.105788 12.3433 0.317363L0.272044 14.4007C0.00638254 14.7107 -0.0730095 15.1762 0.0707319 15.5813C0.214566 15.986 0.553213 16.25 0.92863 16.25H3.71432V24.9167C3.71432 25.5149 4.13013 26 4.64288 26H10.4074H15.7856H21.357C21.8702 26 22.2856 25.5149 22.2856 24.9167V16.25H25.0712C25.4467 16.25 25.7858 15.986 25.929 15.5813C26.0732 15.1762 25.9935 14.7107 25.7277 14.4007ZM11.1428 23.8333V18.4167C11.1428 17.2217 11.9757 16.25 12.9999 16.25C14.0237 16.25 14.8571 17.2217 14.8571 18.4167V23.8333H11.1428ZM21.357 14.0833C20.8438 14.0833 20.4284 14.5684 20.4284 15.1666V23.8333H16.7142V18.4167C16.7142 16.0272 15.0484 14.0833 12.9999 14.0833C10.9519 14.0833 9.28569 16.0272 9.28569 18.4167V23.8333H5.57144V15.1666C5.57144 14.5684 5.15563 14.0833 4.64288 14.0833H3.17027L12.9999 2.61523L22.8296 14.0833H21.357Z" fill="white"/>
</svg>
