<svg width="26" height="26" viewBox="0 0 26 26" fill="none" xmlns="http://www.w3.org/2000/svg">
<path d="M1 22H0H1ZM26 10V9H24V10H26ZM0 10V22H2V10H0ZM0 22C0 23.0609 0.421427 24.0783 1.17157 24.8284L2.58579 23.4142C2.21071 23.0391 2 22.5304 2 22H0ZM1.17157 24.8284C1.92172 25.5786 2.93913 26 4 26V24C3.46957 24 2.96086 23.7893 2.58579 23.4142L1.17157 24.8284ZM4 26H22V24H4V26ZM22 26C23.0609 26 24.0783 25.5786 24.8284 24.8284L23.4142 23.4142C23.0391 23.7893 22.5304 24 22 24V26ZM24.8284 24.8284C25.5786 24.0783 26 23.0609 26 22H24C24 22.5304 23.7893 23.0391 23.4142 23.4142L24.8284 24.8284ZM26 22V10H24V22H26Z" fill="white"/>
<path d="M17.2071 5.32215L18.0292 5.89143L19.1678 4.24713L18.3456 3.67785L17.2071 5.32215ZM12.7216 1L13.2909 0.177855C12.9278 -0.0735289 12.4429 -0.0570236 12.0977 0.218462L12.7216 1ZM18.3456 3.67785L13.2909 0.177855L12.1523 1.82215L17.2071 5.32215L18.3456 3.67785ZM12.0977 0.218462L7.08669 4.21846L8.33439 5.78155L13.3455 1.78155L12.0977 0.218462Z" fill="white"/>
<path d="M12 16V17H14V16H12ZM12 1V16H14V1H12Z" fill="white"/>
</svg>
