<svg width="40" height="40" viewBox="0 0 40 40" fill="none" xmlns="http://www.w3.org/2000/svg">
<path d="M20 40C31.0457 40 40 31.0457 40 20C40 8.95433 31.0457 0 20 0C8.95433 0 0 8.95433 0 20C0 31.0457 8.95433 40 20 40Z" fill="url(#paint0_linear_548:228)"/>
<path d="M7.4485 20.9783C9.78648 19.6905 12.3963 18.6157 14.8348 17.5353C19.03 15.7658 23.2418 14.027 27.4961 12.4082C28.3239 12.1323 29.8111 11.8626 29.957 13.0893C29.8771 14.8256 29.5486 16.5518 29.3233 18.2779C28.7514 22.0739 28.0904 25.8569 27.4458 29.6404C27.2237 30.9007 25.645 31.5531 24.6348 30.7466C22.2072 29.1068 19.7608 27.4829 17.3642 25.8051C16.5791 25.0073 17.3071 23.8618 18.0082 23.2921C20.0077 21.3216 22.1282 19.6474 24.0232 17.5751C24.5344 16.3407 23.0241 17.381 22.5259 17.6998C19.7886 19.5861 17.1182 21.5876 14.2322 23.2454C12.7581 24.0569 11.0399 23.3634 9.5664 22.9106C8.24522 22.3636 6.3092 21.8125 7.44837 20.9784L7.4485 20.9783Z" fill="white"/>
<defs>
<linearGradient id="paint0_linear_548:228" x1="15.0023" y1="1.668" x2="5.00233" y2="25" gradientUnits="userSpaceOnUse">
<stop stop-color="#37AEE2"/>
<stop offset="1" stop-color="#1E96C8"/>
</linearGradient>
</defs>
</svg>
