<svg width="24" height="24" fill="none" xmlns="http://www.w3.org/2000/svg"><g clip-path="url(#a)" fill="#fff"><path d="M16.615 13.97c0-.659-.17-1.236-.505-1.714a2.759 2.759 0 0 0-1.262-1.027c-.538-.213-1.458-.465-2.732-.747-.82-.181-1.061-.334-1.181-.448a.899.899 0 0 1-.28-.662c0-.38.183-1.018 1.41-1.018.63 0 1.14.178 1.522.532.127.118.237.26.33.415l.005.004.019.035a.249.249 0 0 0 .216.126h1.965a.25.25 0 0 0 .252-.25c-.001-.042-.037-.169-.074-.268-.523-1.369-1.552-2.158-3.139-2.42V5.391a.386.386 0 0 0-.385-.384h-1.54a.385.385 0 0 0-.382.384V6.57c-.947.193-1.667.574-2.142 1.135-.532.639-.794 1.348-.794 2.167 0 .736.236 1.367.718 1.935.482.566 1.681 1.045 3.572 1.433.543.109.92.243 1.155.405.279.19.427.477.427.82 0 .46-.274 1.002-1.574 1.002-.441 0-.817-.066-1.142-.208a1.972 1.972 0 0 1-1.027-.988l-.014-.023-.005-.017a.249.249 0 0 0-.22-.135H7.635a.25.25 0 0 0-.25.242c.002.037.02.115.019.118.52 1.695 1.65 2.663 3.45 2.96v1.192c0 .212.172.384.382.384h1.54a.386.386 0 0 0 .385-.384v-1.19c1.03-.166 1.859-.538 2.461-1.113.668-.632.993-1.398.993-2.335z"/><path fill-rule="evenodd" clip-rule="evenodd" d="M12 1.532C6.219 1.532 1.532 6.219 1.532 12S6.219 22.468 12 22.468 22.468 17.781 22.468 12 17.781 1.532 12 1.532zM0 12C0 5.373 5.373 0 12 0s12 5.373 12 12-5.373 12-12 12S0 18.627 0 12z"/></g><defs><clipPath id="a"><path fill="#fff" d="M0 0h24v24H0z"/></clipPath></defs></svg>