<svg width="24" height="24" viewBox="0 0 24 24" fill="none" xmlns="http://www.w3.org/2000/svg">
<path d="M12 0C9.62663 0 7.30655 0.703787 5.33316 2.02236C3.35977 3.34094 1.8217 5.21508 0.913451 7.4078C0.00519921 9.60051 -0.23244 12.0133 0.230582 14.3411C0.693605 16.6689 1.83649 18.807 3.51472 20.4853C5.19295 22.1635 7.33115 23.3064 9.65892 23.7694C11.9867 24.2324 14.3995 23.9948 16.5922 23.0865C18.7849 22.1783 20.6591 20.6402 21.9776 18.6668C23.2962 16.6934 24 14.3734 24 12C23.9964 8.8185 22.731 5.76834 20.4813 3.51868C18.2317 1.26902 15.1815 0.00359025 12 0V0ZM12 22.5882C9.90585 22.5882 7.85872 21.9672 6.1175 20.8038C4.37627 19.6403 3.01915 17.9867 2.21775 16.0519C1.41635 14.1172 1.20667 11.9883 1.61522 9.93434C2.02377 7.88042 3.0322 5.99378 4.51299 4.51299C5.99378 3.03219 7.88042 2.02376 9.93434 1.61521C11.9883 1.20666 14.1172 1.41635 16.0519 2.21775C17.9867 3.01914 19.6403 4.37626 20.8038 6.11749C21.9672 7.85872 22.5882 9.90584 22.5882 12C22.5851 14.8072 21.4685 17.4985 19.4835 19.4835C17.4985 21.4685 14.8072 22.585 12 22.5882ZM13.1765 12C13.1765 12.2327 13.1075 12.4601 12.9782 12.6536C12.8489 12.8471 12.6652 12.9979 12.4502 13.0869C12.2352 13.176 11.9987 13.1993 11.7705 13.1539C11.5423 13.1085 11.3326 12.9964 11.1681 12.8319C11.0036 12.6674 10.8915 12.4577 10.8461 12.2295C10.8007 12.0013 10.824 11.7648 10.9131 11.5498C11.0021 11.3348 11.1529 11.1511 11.3464 11.0218C11.5399 10.8925 11.7673 10.8235 12 10.8235C12.3119 10.8239 12.6109 10.9479 12.8315 11.1685C13.0521 11.3891 13.1761 11.6881 13.1765 12ZM18.8235 12C18.8235 12.2327 18.7545 12.4601 18.6253 12.6536C18.496 12.8471 18.3122 12.9979 18.0973 13.0869C17.8823 13.176 17.6458 13.1993 17.4175 13.1539C17.1893 13.1085 16.9797 12.9964 16.8152 12.8319C16.6506 12.6674 16.5386 12.4577 16.4932 12.2295C16.4478 12.0013 16.4711 11.7648 16.5601 11.5498C16.6492 11.3348 16.8 11.1511 16.9934 11.0218C17.1869 10.8925 17.4144 10.8235 17.6471 10.8235C17.959 10.8239 18.258 10.948 18.4785 11.1685C18.6991 11.3891 18.8232 11.6881 18.8235 12V12ZM7.52942 12C7.52942 12.2327 7.46042 12.4601 7.33114 12.6536C7.20187 12.8471 7.01813 12.9979 6.80316 13.0869C6.58819 13.176 6.35164 13.1993 6.12343 13.1539C5.89521 13.1085 5.68559 12.9964 5.52105 12.8319C5.35652 12.6674 5.24447 12.4577 5.19908 12.2295C5.15369 12.0013 5.17698 11.7648 5.26603 11.5498C5.35507 11.3348 5.50586 11.1511 5.69933 11.0218C5.8928 10.8925 6.12026 10.8235 6.35294 10.8235C6.66485 10.8239 6.96389 10.9479 7.18444 11.1685C7.40499 11.3891 7.52906 11.6881 7.52942 12V12Z" fill="white"/>
</svg>
