<svg width="24" height="24" fill="none" xmlns="http://www.w3.org/2000/svg"><path fill-rule="evenodd" clip-rule="evenodd" d="M12 1.532C6.219 1.532 1.532 6.219 1.532 12S6.219 22.468 12 22.468 22.468 17.781 22.468 12 17.781 1.532 12 1.532zM0 12C0 5.373 5.373 0 12 0s12 5.373 12 12-5.373 12-12 12S0 18.627 0 12z" fill="#fff"/><path fill-rule="evenodd" clip-rule="evenodd" d="M8.922 6.846c-.845-.094-1.61.138-2.198.776-1.293 1.403-1.381 3.618-.264 5.131.025.034.048.07.068.108L12 18.796l5.472-5.935a.918.918 0 0 1 .068-.108c1.117-1.513 1.029-3.728-.264-5.131-.589-.638-1.353-.87-2.198-.776-.861.096-1.775.533-2.533 1.191a.798.798 0 0 1-.545.2.798.798 0 0 1-.545-.2c-.758-.658-1.672-1.095-2.533-1.191zM12 6.21c-.869-.629-1.88-1.066-2.906-1.18-1.25-.14-2.549.204-3.56 1.3-1.852 2.01-2.027 5.148-.525 7.37a.921.921 0 0 0 .18.29l6.216 6.743a.796.796 0 0 0 1.19 0l6.216-6.743a.924.924 0 0 0 .18-.29c1.502-2.222 1.327-5.36-.525-7.37-1.011-1.096-2.31-1.44-3.56-1.3-1.026.114-2.037.551-2.906 1.18z" fill="#fff"/></svg>