<svg width="23" height="24" fill="none" xmlns="http://www.w3.org/2000/svg"><path d="M20.86 2.367c-2.53-2.93-6.54-3.13-9.273-.602C10.35.62 8.83 0 7.235 0c-1.86 0-3.61.84-4.928 2.367C.99 3.892.264 5.92.264 8.077c0 2.157.726 4.184 2.06 5.728l8.485 9.823c.205.238.484.372.775.372.29 0 .569-.134.774-.372l8.506-9.845c1.316-1.535 2.042-3.563 2.042-5.71 0-2.154-.726-4.179-2.045-5.706zm-1.548 9.625-7.728 8.945-7.549-8.746-.179-.198c-.903-1.047-1.4-2.437-1.4-3.917 0-1.479.497-2.87 1.4-3.915.905-1.047 2.105-1.624 3.379-1.624 1.273 0 2.476.578 3.37 1.605l.188.227c.204.246.485.386.78.39.277-.029.577-.13.785-.371l.197-.227c1.863-2.157 4.894-2.157 6.757 0 .904 1.048 1.402 2.436 1.402 3.911 0 1.474-.499 2.867-1.402 3.92z" fill="#fff"/></svg>