<svg width="22" height="22" viewBox="0 0 22 22" fill="none" xmlns="http://www.w3.org/2000/svg">
<path d="M20 8.49777C18.5 14.8218 18 13.5 11 19.5C10 19.5 2.5 12.4985 1 8.49777C1 1.7811 3.37257 2.00083 10 2.00083C16.6274 2.00083 20 1.7811 20 8.49777Z" fill="white"/>
<path d="M20.013 2.17002C17.5534 -0.516208 13.6575 -0.700131 11.0021 1.61749C9.79964 0.569183 8.32347 0 6.77313 0C4.96671 0 3.26632 0.770522 1.98523 2.17002C0.704823 3.56801 0 5.4262 0 7.40322C0 9.381 0.704823 11.2392 2.00151 12.6546L10.246 21.6594C10.4456 21.8774 10.7162 22 10.9986 22C11.281 22 11.552 21.8774 11.7516 21.6594L20.0158 12.6341C21.2952 11.2271 22 9.36813 22 7.39943C22 5.4262 21.2945 3.56953 20.013 2.17002ZM18.5084 10.9924L10.9993 19.1927L3.66447 11.1748L3.49051 10.9932C2.61243 10.0342 2.12903 8.75958 2.12903 7.40322C2.12903 6.04762 2.61243 4.77301 3.49052 3.81401C4.36965 2.85427 5.53535 2.32519 6.77313 2.32519C8.00987 2.32519 9.17938 2.85502 10.0478 3.7966L10.2304 4.00475C10.4282 4.23031 10.7013 4.35897 10.9875 4.36276C11.2571 4.33626 11.5492 4.24316 11.7516 4.02215L11.9422 3.81401C13.7528 1.83699 16.6979 1.83699 18.5077 3.81401C19.3869 4.77451 19.871 6.04761 19.871 7.39943C19.871 8.7505 19.3858 10.0274 18.5084 10.9924Z" fill="white"/>
</svg>
