<svg width="36" height="36" viewBox="0 0 36 36" fill="none" xmlns="http://www.w3.org/2000/svg">
<circle cx="18" cy="18" r="18" fill="#484848"/>
<path d="M27 15.4978C25.5 21.8218 25 20.5 18 26.5C17 26.5 9.5 19.4985 8 15.4978C8 8.7811 10.3726 9.00083 17 9.00083C23.6274 9.00083 27 8.7811 27 15.4978Z" fill="white"/>
<path d="M27.013 9.17002C24.5534 6.48379 20.6575 6.29987 18.0021 8.61749C16.7996 7.56918 15.3235 7 13.7731 7C11.9667 7 10.2663 7.77052 8.98523 9.17002C7.70482 10.568 7 12.4262 7 14.4032C7 16.381 7.70482 18.2392 9.00151 19.6546L17.246 28.6594C17.4456 28.8774 17.7162 29 17.9986 29C18.281 29 18.552 28.8774 18.7516 28.6594L27.0158 19.6341C28.2952 18.2271 29 16.3681 29 14.3994C29 12.4262 28.2945 10.5695 27.013 9.17002ZM25.5084 17.9924L17.9993 26.1927L10.6645 18.1748L10.4905 17.9932C9.61243 17.0342 9.12903 15.7596 9.12903 14.4032C9.12903 13.0476 9.61243 11.773 10.4905 10.814C11.3696 9.85427 12.5353 9.32519 13.7731 9.32519C15.0099 9.32519 16.1794 9.85502 17.0478 10.7966L17.2304 11.0047C17.4282 11.2303 17.7013 11.359 17.9875 11.3628C18.2571 11.3363 18.5492 11.2432 18.7516 11.0222L18.9422 10.814C20.7528 8.83699 23.6979 8.83699 25.5077 10.814C26.3869 11.7745 26.871 13.0476 26.871 14.3994C26.871 15.7505 26.3858 17.0274 25.5084 17.9924Z" fill="white"/>
</svg>
