<svg width="24" height="24" fill="none" xmlns="http://www.w3.org/2000/svg"><path fill-rule="evenodd" clip-rule="evenodd" d="M12 1.532C6.219 1.532 1.532 6.219 1.532 12S6.219 22.468 12 22.468 22.468 17.781 22.468 12 17.781 1.532 12 1.532zM0 12C0 5.373 5.373 0 12 0s12 5.373 12 12-5.373 12-12 12S0 18.627 0 12z" fill="#fff"/><path d="m20.811 11.97-8.357-9.75a.58.58 0 0 0-.909 0l-8.357 9.75a.843.843 0 0 0-.139.817c.1.28.334.463.594.463H5.57v6c0 .414.288.75.643.75H17.786c.355 0 .642-.336.642-.75v-6h1.929c.26 0 .495-.183.594-.463a.842.842 0 0 0-.14-.817zM10.714 18.5v-3.75c0-.827.577-1.5 1.286-1.5.709 0 1.286.673 1.286 1.5v3.75h-2.572zm7.072-6.75c-.356 0-.643.336-.643.75v6H14.57v-3.75c0-1.654-1.153-3-2.571-3-1.418 0-2.571 1.346-2.571 3v3.75H6.857v-6c0-.414-.288-.75-.643-.75h-1.02L12 3.81l6.805 7.94h-1.02z" fill="#fff"/></svg>