<svg width="24" height="24" fill="none" xmlns="http://www.w3.org/2000/svg"><path d="m23.749 13.293-11.143-13c-.335-.39-.877-.39-1.212 0l-11.143 13a1.124 1.124 0 0 0-.186 1.09c.133.373.446.617.792.617H3.43v8c0 .552.383 1 .857 1h15.428c.474 0 .857-.448.857-1v-8h2.572c.346 0 .66-.244.791-.617.134-.374.06-.804-.185-1.09zM10.286 22v-5c0-1.103.769-2 1.714-2s1.714.897 1.714 2v5h-3.428zm9.428-9c-.474 0-.857.448-.857 1v8h-3.428v-5c0-2.206-1.538-4-3.43-4-1.89 0-3.428 1.794-3.428 4v5H5.143v-8c0-.552-.384-1-.857-1h-1.36L12 2.414 21.073 13h-1.359z" fill="#fff"/></svg>