<svg width="192" height="192" viewBox="0 0 192 192" fill="none" xmlns="http://www.w3.org/2000/svg">
<rect x="0.5" y="0.5" width="191" height="191" rx="14.5" fill="#484848" stroke="white"/>
<path d="M95.8193 115.671C87.6438 115.671 81.0167 106.929 81.0167 96.1447C81.0167 85.36 87.6438 76.6179 95.8193 76.6179C103.995 76.6179 110.622 85.36 110.622 96.1447C110.622 106.929 103.995 115.671 95.8193 115.671ZM95.8193 78.7421C88.5729 78.7421 82.627 86.5855 82.627 96.1447C82.627 105.704 88.5729 113.547 95.8193 113.547C103.066 113.547 109.012 105.704 109.012 96.1447C109.012 86.5855 103.066 78.7421 95.8193 78.7421Z" fill="#134563"/>
<path d="M87.9535 95.0009H103.685V97.2885H87.9535V95.0009Z" fill="#134563"/>
<path d="M94.9521 85.7685H96.6863V106.521H94.9521V85.7685Z" fill="#134563"/>
<rect x="6.5" y="8.5" width="178.613" height="174.66" rx="14.5" fill="#484848" stroke="white"/>
<path d="M91.7377 102.844L69.8613 99.7033L18.8289 108.508" stroke="white"/>
<path d="M18.5829 117.648V82.062L69.8611 50.1938" stroke="white"/>
<path d="M62.7395 70.4791L31.985 87.1836L25.0424 83.8296" stroke="white"/>
<path d="M62.8684 61.646V94.5816L24.9924 101.98V83.7692L62.7395 61.9832" stroke="white"/>
<path d="M18 75.3338L25.8708 77.3566L69.8609 50.1938L137.305 74.9292" stroke="white"/>
<path d="M143.282 71.2496L69.8609 40.5196L18 75.3338V68.4042L69.8609 28L143.282 64.4207V71.2496ZM143.282 71.2496L137.305 74.9293L143.282 76.3713V93.1346" stroke="white"/>
<path d="M99.579 161.338V125.881M51.797 117.914L99.579 115.637V125.881M51.797 117.914V152.058M51.797 117.914L64.6165 125.881H99.579M166.303 107.294V153.819" stroke="white"/>
<path d="M118.808 86.6146L93.1694 91.1672V102.549L18.5829 117.914V145.798L118.664 164.742" stroke="white"/>
<path d="M167.88 153.756L118.808 164.578V86.6146L173 100.841V152.627L167.88 153.756ZM167.88 153.756L127.549 162.65V109.378M127.549 109.378V98.5651L166.59 107.101L144.447 111.654L127.549 109.378Z" stroke="white"/>
</svg>
