<svg width="298" height="220" viewBox="0 0 298 220" fill="none" xmlns="http://www.w3.org/2000/svg">
<rect width="298" height="220" rx="16" fill="#484848"/>
<rect width="298" height="220" rx="16" stroke="white"/>
<path d="M148.968 132.808C136.194 132.808 125.839 122.7 125.839 110.23C125.839 97.7599 136.194 87.6519 148.968 87.6519C161.742 87.6519 172.097 97.7599 172.097 110.23C172.097 122.7 161.742 132.808 148.968 132.808ZM148.968 90.108C137.645 90.108 128.355 99.177 128.355 110.23C128.355 121.282 137.645 130.351 148.968 130.351C160.29 130.351 169.581 121.282 169.581 110.23C169.581 99.177 160.29 90.108 148.968 90.108Z" fill="#134563"/>
<path d="M136.677 108.907H161.258V111.552H136.677V108.907Z" fill="#134563"/>
<path d="M147.613 98.2322H150.323V122.227H147.613V98.2322Z" fill="#134563"/>
<rect x="8.5" y="8.50006" width="281" height="203" rx="15.5" fill="#484848" stroke="white"/>
<path d="M144.631 117.574L119.226 113.899L59.9626 124.201" stroke="white"/>
<path d="M59.677 134.896V93.2572L119.226 55.9688" stroke="white"/>
<path d="M110.956 79.7042L75.2406 99.2499L67.1782 95.3255" stroke="white"/>
<path d="M111.105 69.3688V107.906L67.1202 116.562V95.2548L110.955 69.7634" stroke="white"/>
<path d="M59 85.3847L68.1403 87.7516L119.226 55.9688L197.548 84.9113" stroke="white"/>
<path d="M204.489 80.6058L119.226 44.6491L59 85.3847V77.2764L119.226 30.0001L204.489 72.6154V80.6058ZM204.489 80.6058L197.548 84.9113L204.489 86.5986V106.213" stroke="white"/>
<path d="M153.737 186.017V144.529M98.2482 135.207L153.737 132.543V144.529M98.2482 135.207V175.159M98.2482 135.207L113.135 144.529H153.737M231.223 122.781V177.219" stroke="white"/>
<path d="M176.068 98.5841L146.294 103.911V117.228L59.677 135.207V167.834L175.9 190" stroke="white"/>
<path d="M233.054 177.146L176.068 189.808V98.5841L239 115.231V175.824L233.054 177.146ZM233.054 177.146L186.218 187.552V125.219M186.218 125.219V112.567L231.556 122.555L205.842 127.882L186.218 125.219Z" stroke="white"/>
</svg>
