<svg width="300" height="222" fill="none" xmlns="http://www.w3.org/2000/svg"><rect x=".5" y=".5" width="299" height="221" rx="14.5" fill="#484848" stroke="#fff"/><path d="M145.161 120.825c-12.774 0-23.129-10.108-23.129-22.578 0-12.47 10.355-22.578 23.129-22.578 12.774 0 23.129 10.108 23.129 22.578 0 12.47-10.355 22.578-23.129 22.578zm0-42.7c-11.322 0-20.613 9.069-20.613 20.122 0 11.053 9.291 20.122 20.613 20.122 11.323 0 20.613-9.069 20.613-20.122 0-11.053-9.29-20.122-20.613-20.122z" fill="#134563"/><path d="M132.871 96.924h24.581v2.645h-24.581v-2.645z" fill="#134563"/><path d="M143.806 86.25h2.71v23.994h-2.71V86.249z" fill="#134563"/><rect x="10.177" y="9.947" width="279.645" height="202.106" rx="14.5" fill="#484848" stroke="#fff"/><path d="m145.124 118.557-25.542-3.667L60 125.17" stroke="#fff"/><path d="M59.713 135.842V94.294l59.869-37.207" stroke="#fff"/><path d="M111.267 80.77 75.36 100.273l-8.106-3.915" stroke="#fff"/><path d="M111.418 70.457v38.454l-44.222 8.637V96.287l44.071-25.436" stroke="#fff"/><path d="m59.032 86.438 9.19 2.362 51.36-31.713 78.743 28.879" stroke="#fff"/><path d="m205.303 81.67-85.721-35.878-60.55 40.646v-8.09l60.55-47.174 85.721 42.523v7.973zm0 0-6.978 4.296 6.978 1.684v19.571M154.278 186.852v-41.399m-55.787-9.301 55.787-2.658v11.959m-55.787-9.301v39.864m0-39.864 14.968 9.301h40.819m77.903-21.7v54.319" stroke="#fff"/><path d="m176.73 99.609-29.935 5.315v13.289l-87.082 17.939v32.556l116.848 22.118" stroke="#fff"/><path d="m234.022 177.999-57.293 12.635V99.609L240 116.219v60.462l-5.978 1.318zm0 0-47.088 10.384v-62.197m0 0v-12.624l45.582 9.966-25.852 5.315-19.73-2.657z" stroke="#fff"/></svg>