<svg width="300" height="222" viewBox="0 0 300 222" fill="none" xmlns="http://www.w3.org/2000/svg">
<rect x="0.5" y="0.5" width="299" height="221" rx="14.5" fill="#484848" stroke="white"/>
<path d="M145.161 120.825C132.387 120.825 122.032 110.717 122.032 98.2468C122.032 85.777 132.387 75.6689 145.161 75.6689C157.935 75.6689 168.29 85.777 168.29 98.2468C168.29 110.717 157.935 120.825 145.161 120.825ZM145.161 78.1251C133.839 78.1251 124.548 87.194 124.548 98.2468C124.548 109.3 133.839 118.369 145.161 118.369C156.484 118.369 165.774 109.3 165.774 98.2468C165.774 87.194 156.484 78.1251 145.161 78.1251Z" fill="#134563"/>
<path d="M132.871 96.9243H157.452V99.5694H132.871V96.9243Z" fill="#134563"/>
<path d="M143.806 86.2493H146.516V110.244H143.806V86.2493Z" fill="#134563"/>
<rect x="10.1774" y="9.94684" width="279.645" height="202.106" rx="14.5" fill="#484848" stroke="white"/>
<path d="M145.124 118.557L119.582 114.89L60 125.17" stroke="white"/>
<path d="M59.7129 135.842V94.2936L119.582 57.0865" stroke="white"/>
<path d="M111.267 80.7703L75.3602 100.273L67.2544 96.3575" stroke="white"/>
<path d="M111.418 70.4573V108.911L67.1962 117.548V96.2869L111.267 70.8511" stroke="white"/>
<path d="M59.0322 86.4383L68.2217 88.8L119.582 57.0865L198.325 85.966" stroke="white"/>
<path d="M205.303 81.6699L119.582 45.7916L59.0322 86.4383V78.3478L119.582 31.1745L205.303 73.6969V81.6699ZM205.303 81.6699L198.325 85.966L205.303 87.6496V107.221" stroke="white"/>
<path d="M154.278 186.852V145.453M98.4914 136.152L154.278 133.494V145.453M98.4914 136.152V176.016M98.4914 136.152L113.459 145.453H154.278M232.181 123.753V178.072" stroke="white"/>
<path d="M176.73 99.609L146.795 104.924V118.213L59.7129 136.152V168.708L176.561 190.826" stroke="white"/>
<path d="M234.022 177.999L176.729 190.634V99.609L240 116.219V176.681L234.022 177.999ZM234.022 177.999L186.934 188.383V126.186M186.934 126.186V113.562L232.516 123.528L206.664 128.843L186.934 126.186Z" stroke="white"/>
</svg>
