<svg width="298" height="220" viewBox="0 0 298 220" fill="none" xmlns="http://www.w3.org/2000/svg">
<rect width="298" height="220" rx="16" fill="#484848"/>
<rect width="298" height="220" rx="16" stroke="white"/>
<rect x="8" y="8.00006" width="282" height="204" rx="16" fill="#484848" stroke="white" stroke-width="1.5"/>
<path d="M144.631 117.574L119.226 113.899L59.9626 124.201" stroke="white" stroke-width="1.5"/>
<path d="M59.677 134.896V93.2572L119.226 55.9688" stroke="white" stroke-width="1.5"/>
<path d="M110.956 79.7042L75.2406 99.2499L67.1782 95.3255" stroke="white" stroke-width="1.5"/>
<path d="M111.105 69.3688V107.906L67.1202 116.562V95.2548L110.955 69.7634" stroke="white" stroke-width="1.5"/>
<path d="M59 85.3847L68.1403 87.7516L119.226 55.9688L197.548 84.9113" stroke="white" stroke-width="1.5"/>
<path d="M204.489 80.6058L119.226 44.6491L59 85.3847V77.2764L119.226 30.0001L204.489 72.6154V80.6058ZM204.489 80.6058L197.548 84.9113L204.489 86.5986V106.213" stroke="white" stroke-width="1.5"/>
<path d="M153.737 186.017V144.529M98.2482 135.207L153.737 132.543V144.529M98.2482 135.207V175.159M98.2482 135.207L113.135 144.529H153.737M231.223 122.781V177.219" stroke="white" stroke-width="1.5"/>
<path d="M176.068 98.5841L146.294 103.911V117.228L59.677 135.207V167.834L175.9 190" stroke="white" stroke-width="1.5"/>
<path d="M233.054 177.146L176.068 189.808V98.5841L239 115.231V175.824L233.054 177.146ZM233.054 177.146L186.218 187.552V125.219M186.218 125.219V112.567L231.556 122.555L205.842 127.882L186.218 125.219Z" stroke="white" stroke-width="1.5"/>
</svg>
