<svg width="40" height="40" viewBox="0 0 40 40" fill="none" xmlns="http://www.w3.org/2000/svg">
<path fill-rule="evenodd" clip-rule="evenodd" d="M20 0C8.7334 0 0 8.25282 0 19.4C0 25.2308 2.3896 30.2692 6.28112 33.7493C6.6078 34.0417 6.805 34.4513 6.8184 34.8897L6.92732 38.4473C6.96212 39.5821 8.13428 40.3205 9.17268 39.8621L13.1424 38.1097C13.4789 37.9613 13.856 37.9337 14.2106 38.0313C16.0348 38.5329 17.9763 38.8001 20 38.8001C31.2666 38.8001 40 30.5473 40 19.4C40 8.25282 31.2666 0 20 0Z" fill="url(#paint0_radial_548:221)"/>
<path fill-rule="evenodd" clip-rule="evenodd" d="M7.9901 25.0735L13.8651 15.7527C14.7996 14.2699 16.8008 13.9007 18.203 14.9523L22.8757 18.4568C23.3044 18.7784 23.8943 18.7767 24.3212 18.4527L30.6319 13.6633C31.4742 13.0241 32.5737 14.0321 32.01 14.9266L26.135 24.2475C25.2004 25.7302 23.1992 26.0995 21.7971 25.0478L17.1243 21.5432C16.6956 21.2217 16.1057 21.2234 15.6788 21.5474L9.3681 26.3368C8.52582 26.976 7.4263 25.968 7.9901 25.0735Z" fill="white"/>
<defs>
<radialGradient id="paint0_radial_548:221" cx="0" cy="0" r="1" gradientUnits="userSpaceOnUse" gradientTransform="translate(7.69897 39.7861) scale(43.5838)">
<stop stop-color="#0099FF"/>
<stop offset="0.609754" stop-color="#A033FF"/>
<stop offset="0.934823" stop-color="#FF5280"/>
<stop offset="1" stop-color="#FF7061"/>
</radialGradient>
</defs>
</svg>
