<svg width="48" height="39" fill="none" xmlns="http://www.w3.org/2000/svg"><path stroke="#484848" stroke-width="3" d="M6.5 2.353h35v34.441h-35z"/><path fill="#fff" d="M21 .853h6v37.441h-6z"/><path fill="#fff" d="M5 22.53v-5.913h38v5.912z"/><path fill="#484848" d="M26 21.544h4v3.941h-4zM30 25.485h4v3.941h-4zM34 21.544h4v3.941h-4zM26 29.427h4v3.941h-4zM34 29.427h4v3.941h-4z"/><path d="M48 19.573H0M11 22.544h10v9.824H11zM11 6.779h10v9.824H11z" stroke="#484848" stroke-width="2"/><path fill="#484848" d="M14 9.721h4v3.941h-4zM14 25.485h4v3.941h-4z"/><path stroke="#484848" stroke-width="2" d="M27 6.779h10v9.824H27z"/><path fill="#484848" d="M30 9.721h4v3.941h-4z"/></svg>