<svg width="40" height="40" viewBox="0 0 40 40" fill="none" xmlns="http://www.w3.org/2000/svg">
<path d="M20.0049 1.30859H19.9951C9.7171 1.30859 1.35913 9.69148 1.35913 20C1.35913 24.0887 2.67312 27.8787 4.90773 30.9556L2.58491 37.8988L9.75023 35.6024C12.6975 37.5605 16.2136 38.6913 20.0049 38.6913C30.283 38.6913 38.6409 30.3058 38.6409 19.9999C38.6409 9.69398 30.2829 1.30859 20.0049 1.30859Z" fill="#5ACF5F"/>
<path d="M30.8512 27.7028C30.4014 28.9766 28.6165 30.0323 27.1931 30.3412C26.2186 30.5488 24.9467 30.715 20.6643 28.9345C15.1858 26.6589 11.6581 21.077 11.3835 20.7149C11.1198 20.3527 9.16974 17.7597 9.16974 15.077C9.16974 12.3949 10.528 11.0886 11.0758 10.5284C11.5251 10.0677 12.2686 9.85782 12.9816 9.85782C13.2124 9.85782 13.4196 9.86922 13.6064 9.87868C14.1539 9.90227 14.4286 9.93469 14.7901 10.8016C15.2397 11.8882 16.3346 14.5702 16.4654 14.8462C16.5983 15.122 16.7308 15.4955 16.5445 15.8575C16.3695 16.2316 16.216 16.3973 15.941 16.7149C15.6659 17.0331 15.4047 17.276 15.13 17.6168C14.8785 17.9135 14.5941 18.2314 14.9111 18.7806C15.2279 19.318 16.3229 21.1096 17.9351 22.5489C20.0165 24.4063 21.703 24.9998 22.3068 25.2523C22.7565 25.4395 23.2923 25.3947 23.6205 25.0443C24.0377 24.5932 24.5532 23.8457 25.0772 23.11C25.4499 22.5819 25.9205 22.5163 26.4146 22.7031C26.9178 22.8784 29.5811 24.1987 30.1287 24.472C30.6761 24.7477 31.0377 24.8784 31.1704 25.1098C31.3009 25.3407 31.3009 26.4274 30.8512 27.7028Z" fill="#FCFCFC"/>
</svg>
